<svg version="1.1" preserveAspectRatio="none" xmlns="http://www.w3.org/2000/svg" width="500" height="500" viewBox="0 0 500 500"><rect width="100%" height="100%" fill="#F7F7F7" fill-opacity="1"/><svg viewBox="262.3586 356.704 375.2828 270.7312" width="333" height="240.22814155085177" x="83.5px" y="129.8859px" xmlns="http://www.w3.org/2000/svg" xmlns:xlink="http://www.w3.org/1999/xlink" preserveAspectRatio="none"><defs></defs><style>.companyName {fill:#2B2B2B;fill-opacity:1;}.icon1 {fill:#2B2B2B;fill-opacity:1;}.icon2 {fill:#59C65B;fill-opacity:1;}.icon3 {fill:#6D6D6D;fill-opacity:1;}.icon3-str {stroke:#6D6D6D;stroke-opacity:1;}</style><g opacity="1" transform="rotate(0 356.1793 356.704)">
<svg width="187.6414" height="140.7312" x="356.1793" y="356.704" version="1.1" preserveAspectRatio="none" viewBox="20 40 160 120">
  <g transform="matrix(1 0 0 1 0 0)" ><g><path d="M173.3 143.6v-14h-13.6V99.9h-30v29.9H100V99.9h29.7V40H70.3v29.9H41V56H27v-6.8h-7v7.1h6.7v14.1h13.8v59.4h29.7V160h59.5v-29.9H159v13.8h14v6.7h7v-7.1l-6.7.1zM99.8 99.7H70.5V70.2h29.3v29.5z" data-color="1" class="icon1"></path></g></g>
</svg>
</g><g opacity="1" transform="rotate(0 262.3586 537.4352)">
<svg width="375.2828" height="90" x="262.3586" y="537.4352" version="1.1" preserveAspectRatio="none" viewBox="1.8 -25.44 106.08 25.44">
  <g transform="matrix(1 0 0 1 0 0)" class="companyName"><path id="id-D6z1nYkh6" d="M6.84-17.04L6.84 0L1.80 0L1.80-25.44L8.04-25.44L12.24-11.04L16.44-25.44L22.68-25.44L22.68 0L17.64 0L17.64-17.08L14.36-5.52L10.12-5.52L6.84-17.04Z M37.48-8.20L37.48 0L31.76 0L31.76-8.24L25.36-25.44L31.20-25.44L34.60-13.48L37.76-25.44L43.60-25.44L37.48-8.20Z M44.64-25.44L59.68-25.44L59.68-21.24L55-21.24L55 0L49.28 0L49.28-21.24L44.64-21.24L44.64-25.44Z M69.16-9.52L68.16-9.52L68.16 0L62.48 0L62.48-25.44L72.96-25.44Q78-25.44 78-21.04L78-21.04L78-13.92Q78-10.40 74.80-9.68L74.80-9.68L79.28 0L73.16 0L69.16-9.52ZM71.24-21.24L68.16-21.24L68.16-13.56L71.24-13.56Q71.80-13.56 72.04-13.78Q72.28-14 72.28-14.52L72.28-14.52L72.28-20.24Q72.28-21.24 71.24-21.24L71.24-21.24Z M82.16 0L82.16-25.44L87.84-25.44L87.84 0L82.16 0Z M92.36 0L92.36-25.44L102.84-25.44Q107.88-25.44 107.88-21.04L107.88-21.04L107.88-13.32Q107.88-8.88 102.84-8.88L102.84-8.88L98.04-8.88L98.04 0L92.36 0ZM102.16-14.08L102.16-14.08L102.16-20.24Q102.16-21.24 101.12-21.24L101.12-21.24L98.04-21.24L98.04-13.08L101.12-13.08Q102.16-13.08 102.16-14.08Z"/></g>
</svg>
</g></svg></svg>